<svg  viewBox="0 0 46 47" fill="none" xmlns="http://www.w3.org/2000/svg">
<g filter="url(#filter0_d_9003_3170)">
<path fill-rule="evenodd" clip-rule="evenodd" d="M29.7498 16.8498V14.75C29.7498 11.85 29.0498 8 22.9998 8C16.9498 8 16.2498 11.85 16.2498 14.75V16.8499C13.7 17.1599 13 18.4099 13 21.7499V23.7499C13 27.7499 14 28.7499 18 28.7499H28C32 28.7499 33 27.7499 33 23.7499V21.7499C33 18.4099 32.3 17.1599 29.75 16.8499C29.7499 16.8498 29.7499 16.8498 29.7498 16.8498ZM28.2498 16.7499V14.75C28.2498 11.6 27.3598 9.5 22.9998 9.5C18.6398 9.5 17.7498 11.6 17.7498 14.75V16.7499C17.7499 16.7499 17.7499 16.7499 17.75 16.7499H28.2498ZM19 23.7499C19.26 23.7499 19.52 23.6399 19.71 23.4599C19.89 23.2699 20 23.0099 20 22.7499C20 22.6199 19.97 22.4899 19.92 22.3699C19.87 22.2499 19.8 22.1399 19.71 22.0399C19.43 21.7599 18.99 21.6699 18.62 21.8299C18.49 21.8799 18.39 21.9499 18.29 22.0399C18.2 22.1399 18.13 22.2499 18.08 22.3699C18.03 22.4899 18 22.6199 18 22.7499C18 23.0099 18.11 23.2699 18.29 23.4599C18.39 23.5499 18.49 23.6199 18.62 23.6699C18.74 23.7199 18.87 23.7499 19 23.7499ZM23.71 23.4599C23.8 23.3599 23.87 23.2499 23.92 23.1299C23.97 23.0099 24 22.8799 24 22.7499C24 22.4799 23.89 22.2299 23.71 22.0399C23.33 21.6699 22.66 21.6699 22.29 22.0399C22.11 22.2299 22 22.4799 22 22.7499C22 22.8799 22.03 23.0099 22.08 23.1299C22.13 23.2499 22.2 23.3599 22.29 23.4599C22.48 23.6399 22.73 23.7499 23 23.7499C23.26 23.7499 23.52 23.6399 23.71 23.4599ZM27 23.7499C27.26 23.7499 27.52 23.6399 27.71 23.4599C27.89 23.2699 28 23.0099 28 22.7499C28 22.6899 27.99 22.6199 27.98 22.5499C27.97 22.4899 27.95 22.4299 27.92 22.3699C27.9 22.3099 27.87 22.2499 27.83 22.1999C27.79 22.1399 27.75 22.0899 27.71 22.0399L27.71 22.0399C27.34 21.6699 26.67 21.6699 26.29 22.0399C26.11 22.2299 26 22.4799 26 22.7499C26 23.0199 26.11 23.2699 26.29 23.4599C26.48 23.6399 26.74 23.7499 27 23.7499Z" fill="#06524C"/>
</g>
<defs>
<filter id="filter0_d_9003_3170" x="0" y="0" width="46" height="46.75" filterUnits="userSpaceOnUse" color-interpolation-filters="sRGB">
<feFlood flood-opacity="0" result="BackgroundImageFix"/>
<feColorMatrix in="SourceAlpha" type="matrix" values="0 0 0 0 0 0 0 0 0 0 0 0 0 0 0 0 0 0 127 0" result="hardAlpha"/>
<feOffset dy="5"/>
<feGaussianBlur stdDeviation="6.5"/>
<feComposite in2="hardAlpha" operator="out"/>
<feColorMatrix type="matrix" values="0 0 0 0 0.0235294 0 0 0 0 0.321569 0 0 0 0 0.298039 0 0 0 0.4 0"/>
<feBlend mode="normal" in2="BackgroundImageFix" result="effect1_dropShadow_9003_3170"/>
<feBlend mode="normal" in="SourceGraphic" in2="effect1_dropShadow_9003_3170" result="shape"/>
</filter>
</defs>
</svg>
